inDegrees=no
num_controls=7
num_derivatives=13
num_iterations=134
num_multipliers=7
num_parameters=0
num_slacks=7
num_states=26
objective=5.514688
objective_accelerations=0.411328
objective_balance=0.036843
objective_effort=0.432960
objective_height=4.608912
objective_ligament=0.024645
solver_duration=1479.856237
status=Solve_Succeeded
success=true
DataType=double
version=3
OpenSimVersion=4.4-2022-07-23-0e9fedc
endheader
time	/jointset/ground_pelvis/pelvis_tilt/value	/jointset/ground_pelvis/pelvis_tx/value	/jointset/ground_pelvis/pelvis_ty/value	/jointset/hip_l/hip_flexion_l/value	/jointset/hip_l/hip_adduction_l/value	/jointset/hip_l/hip_rotation_l/value	/jointset/back/lumbar_extension/value	/jointset/patellofemoral_l/patellar_flexion_l/value	/jointset/knee_l/knee_flexion_l/value	/jointset/knee_l/knee_adduction_l/value	/jointset/knee_l/knee_rotation_l/value	/jointset/ankle_l/ankle_angle_l/value	/jointset/subtalar_l/subtalar_angle_l/value	/jointset/ground_pelvis/pelvis_tilt/speed	/jointset/ground_pelvis/pelvis_tx/speed	/jointset/ground_pelvis/pelvis_ty/speed	/jointset/hip_l/hip_flexion_l/speed	/jointset/hip_l/hip_adduction_l/speed	/jointset/hip_l/hip_rotation_l/speed	/jointset/back/lumbar_extension/speed	/jointset/patellofemoral_l/patellar_flexion_l/speed	/jointset/knee_l/knee_flexion_l/speed	/jointset/knee_l/knee_adduction_l/speed	/jointset/knee_l/knee_rotation_l/speed	/jointset/ankle_l/ankle_angle_l/speed	/jointset/subtalar_l/subtalar_angle_l/speed	/forceset/tau_hip_flexion_l	/forceset/tau_hip_adduction_l	/forceset/tau_hip_rotation_l	/forceset/tau_knee_flexion_l	/forceset/tau_ankle_angle_l	/forceset/tau_subtalar_angle_l	/forceset/tau_lumbar_extension	lambda_cid13_p0	lambda_cid13_p1	lambda_cid13_p2	lambda_cid13_p3	lambda_cid13_p4	lambda_cid13_p5	lambda_cid14_p0	/jointset/ground_pelvis/pelvis_tilt/accel	/jointset/ground_pelvis/pelvis_tx/accel	/jointset/ground_pelvis/pelvis_ty/accel	/jointset/hip_l/hip_flexion_l/accel	/jointset/hip_l/hip_adduction_l/accel	/jointset/hip_l/hip_rotation_l/accel	/jointset/back/lumbar_extension/accel	/jointset/patellofemoral_l/patellar_flexion_l/accel	/jointset/knee_l/knee_flexion_l/accel	/jointset/knee_l/knee_adduction_l/accel	/jointset/knee_l/knee_rotation_l/accel	/jointset/ankle_l/ankle_angle_l/accel	/jointset/subtalar_l/subtalar_angle_l/accel	gamma_cid13_p0	gamma_cid13_p1	gamma_cid13_p2	gamma_cid13_p3	gamma_cid13_p4	gamma_cid13_p5	gamma_cid14_p0
1.5	0.02796919315150547	-0.003479776315497581	0.8727925669696361	0.5698399631252072	-0.3252983916696805	-0.156811981525846	-0.782640549739406	0.6697257031225449	0.669725703122538	-0.1323891844988639	-0.1742487346156271	0.1193167431783496	0.008746670877342875	0.2752092145457079	0.2292847579646704	0.3268590908265108	-1.709934167659557	0.09802121557697922	-0.5882709879434299	0.8468865514567913	-1.709001488359129	-1.709001488359105	-0.09538749743524322	0.006235903661700955	-0.3752039584868649	-0.01533133197042533	-0.1788867870007721	0.02077307044719107	-0.00223028428122575	-0.2070429243001315	0.06607414194253571	0.04155055690232507	0.2669696583925082	-21.50310617034986	-16.94669998554478	5.293051657298648	-5.797548645475192	-675.2424226810656	-79.08263422039946	-18.97648421512393	-0.1091447946406251	0.5393872294724269	-0.4841713173085224	-0.5127071634941394	0.4644901645912186	-0.2129937118953417	1.730109166420643	-0.7863355991901698	-0.786335599190164	-0.146898390415283	0.1295180926041996	-0.09528186431800585	0.4701117987694959	9.389780079423246e-08	1.011931529859892e-06	-3.093991914580504e-07	1.086961971906006e-07	1.62438614468068e-07	3.73793726581732e-07	1.445157961151815e-07
1.51	0.03071558867480466	-0.001160234534179062	0.8760362983677967	0.5527168126096369	-0.3242956791237126	-0.1627053825655756	-0.774086678843466	0.6525984576604003	0.6525984576603405	-0.1333513645013545	-0.1741812030659924	0.1155602310726806	0.008616077095574607	0.2740342424117019	0.2345921940997874	0.3218222200783517	-1.714461624319366	0.102515468265019	-0.5903441169269316	0.863746028498844	-1.71620674872321	-1.71620674872327	-0.09703810511650848	0.007264114327943966	-0.3760364503133942	-0.0107795610456669	-0.1719446403357743	0.01967401790450647	-0.002294681668908817	-0.204269868754499	0.0669080535439501	0.04082331364434347	0.2602032177475228	-21.05019381758203	-16.73647119612376	5.289588964803696	-5.708183011204538	-671.5532054116478	-79.05145997436878	-19.50981593438429	-0.1270141434659447	0.5217290988127743	-0.5231480409127863	-0.3876104619383859	0.4409631434050287	-0.1945463444614345	1.642627087849359	-0.6515276283710729	-0.6515276283838642	-0.1724380662924114	0.08842149546322589	-0.06790184547913786	0.4487880634040204	1.196458663660255e-07	1.018497603865781e-06	-4.485322567114002e-07	9.609574997743048e-08	1.945601165757382e-07	4.220110149076855e-07	1.635645738107138e-07
1.52	0.03344916633261064	0.001211443067145419	0.8792277204410101	0.5355554184184744	-0.3232482099864037	-0.1686175296656354	-0.7653684611541667	0.6354063783198938	0.6354063783198922	-0.1343297098024415	-0.1741035996213393	0.1117972602480223	0.008531216687867953	0.2726456414502692	0.2397119219658626	0.316397225836881	-1.717582902767793	0.1069725338527799	-0.5920202000257556	0.8797559101310348	-1.721968264021439	-1.721968264021583	-0.09862055717017401	0.008250282667376272	-0.3764957022862494	-0.00618465715788704	-0.1650024936708884	0.01857496536205904	-0.002359079056307173	-0.2014968132088491	0.06774196514547667	0.04009607038665774	0.2534367771023428	-20.60182628733001	-16.52704576903454	5.288081517537109	-5.637117621834945	-667.9532167722691	-79.06312055063265	-20.02223878391359	-0.1518705601263005	0.5018455756648875	-0.5617960159707385	-0.2314715212178577	0.4570527445352366	-0.133584534960131	1.560190084448416	-0.4975865860200776	-0.4975865860200777	-0.1332672648954858	0.1211096272416582	-0.02063389358232927	0.4787383913739465	1.303525307355689e-07	1.04353961714449e-06	-5.143537953575958e-07	9.338387420716499e-08	2.117391832439685e-07	4.537864138584464e-07	1.740420122549218e-07
1.53	0.03616779608257858	0.00363335255028849	0.8823630158656176	0.5183698171298612	-0.3221563891281103	-0.1745444432251819	-0.7564944713082763	0.6181639383782254	0.6181639383781002	-0.1353235525754497	-0.174016323194618	0.1080316067798674	0.00849250780767849	0.2710457828620336	0.2446355061116437	0.3106033847364078	-1.719303119828136	0.1113818210019556	-0.5932812951323929	0.8948911040476165	-1.726273490249054	-1.726273490249155	-0.1001425592314994	0.009211108674035174	-0.3765678485715592	-0.001551689579333031	-0.157972489954003	0.01737869864057645	-0.002459582919380435	-0.1989582680457677	0.06886310818807014	0.03920665142091417	0.2466390477514882	-20.07887612526108	-16.25473504316185	5.270252607264767	-5.592482430949008	-664.5322212467935	-78.98598118054005	-20.51057382651501	-0.1692184705871441	0.4824656237990527	-0.596906561252903	-0.1071566178382251	0.4313203429942175	-0.1100268568000244	1.46754079498957	-0.3600907591585089	-0.3600907591520567	-0.1606920480597032	0.08438013402415065	0.009596347101530425	0.4562722596559102	1.250777063277222e-07	1.088212315900571e-06	-5.02281836983691e-07	1.011786055949855e-07	2.130419122577942e-07	4.680923053480654e-07	1.754124027445979e-07
1.54	0.03886939225415407	0.006103468032841139	0.8854386271983887	0.5011740417067011	-0.3210207846697928	-0.1804814987073917	-0.7474736581732896	0.6008858261505308	0.6008858261505324	-0.136332420443105	-0.1739192762987306	0.1042672521174823	0.008500267866985298	0.2692389257772547	0.2493531218477782	0.3044604074694256	-1.719617729664327	0.1157292538665293	-0.5940485845704087	0.9091205679533259	-1.729102721197721	-1.729102721197778	-0.1016255761451847	0.01020437654659832	-0.3762359411325786	0.003109130741628806	-0.1509424862373349	0.01618243191922708	-0.002560086780672711	-0.1964197228828683	0.06998425123070637	0.03831723245531021	0.2398413184004064	-19.56096128545218	-15.98299641761812	5.254176124981818	-5.563445538425868	-661.206084853996	-78.95142736562094	-20.97166955256032	-0.1932702594354966	0.4606518937363394	-0.6316232492724729	0.04964992361226579	0.4446818876146172	-0.03482340123599994	1.379044082273893	-0.2023875302306193	-0.2023875302306192	-0.1254702353675641	0.12759800042233	0.06017685127657925	0.4843089398557483	1.190881426839045e-07	1.111574477672802e-06	-4.896369269792518e-07	1.06416479639272e-07	2.1248392047443e-07	4.762218385988452e-07	1.746412290581423e-07
1.55	0.04155187559810231	0.008619670204783918	0.8884511260530216	0.4839821961598887	-0.3198420157134171	-0.1864238560317159	-0.738315120610602	0.5835868441112745	0.583586844111035	-0.1373558007453972	-0.1738121720527916	0.1005082377872302	0.00855478649690866	0.2672247551620457	0.2538466934315391	0.297987645493242	-1.718514314829882	0.1200108404930424	-0.5943474249506331	0.9224281862335352	-1.730442403047788	-1.730442403047902	-0.1030381104855243	0.0112161952941417	-0.3755000703674389	0.007796281427206538	-0.1439905213012599	0.01491741929321345	-0.002682138835104103	-0.1938294303701691	0.07091612804812757	0.03739329022678322	0.2331217611836915	-19.11998634687259	-15.68280467015817	5.233576404942083	-5.432547130942496	-658.0858940466424	-78.89426790405399	-21.40236333603661	-0.2104366305087247	0.4376389228155986	-0.6628187099737196	0.1762498094341862	0.4177624520975282	-0.01594039566455776	1.282806947933991	-0.06209988847117391	-0.06209988847991542	-0.1471307016913459	0.08783115474935653	0.09034856635080674	0.4610504450302698	1.122750751377724e-07	1.110383194659293e-06	-4.763318770526751e-07	1.087084093529651e-07	2.097820547290863e-07	4.772351330092235e-07	1.714026009948395e-07
1.56	0.04421322800228501	0.01117959391898699	0.8913973540802571	0.4668084972705723	-0.3186208578104442	-0.1923669069676159	-0.7290282696157209	0.5662819969780216	0.5662819969780097	-0.1383929035243792	-0.1736949781512977	0.09675859344007683	0.008656203096110779	0.2650127378290915	0.2580974302998377	0.2912062419898314	-1.715988398152519	0.1242070431966266	-0.5941873069008318	0.934783254395394	-1.730275739940921	-1.730275739941094	-0.1043700715588434	0.01222230775492911	-0.3743619445135523	0.01248872459766393	-0.137038556365393	0.01365240666742284	-0.002804190886200489	-0.1912391378577835	0.07184800486560938	0.03646934799847709	0.2264022039667287	-18.68463477178252	-15.38267486817647	5.214182655322459	-5.314915852806597	-655.0682713563103	-78.8777653350292	-21.79961131786835	-0.2328396029850981	0.4120849506446409	-0.6933515547177999	0.3341502921958602	0.4276051030285379	0.05696828476908004	1.188534058603659	0.0988814611556266	0.09888146115561634	-0.1093555819634851	0.1264567430711118	0.1406278690268248	0.4853674368319865	1.049255170314826e-07	1.110657648180124e-06	-4.612211926901308e-07	1.11223916857864e-07	2.062793787939191e-07	4.770854362372486e-07	1.680506967097588e-07
1.57	0.04685142846259594	0.01378078867779298	0.8942742990047744	0.4496672011805165	-0.3173581526382002	-0.1983060519952917	-0.7196225876892821	0.548986367122667	0.5489863671224386	-0.1394428330172033	-0.1735676858721951	0.09302238324101875	0.008804610009768499	0.2625919268363097	0.262098622607674	0.2841387555682597	-1.712032139725193	0.1283174110897585	-0.5935590519549482	0.9461961606944491	-1.728596742430331	-1.728596742430503	-0.1056004955823029	0.01324218468049344	-0.3728097101368141	0.01719305920480656	-0.1301141042716834	0.01232532212284627	-0.002964059684370669	-0.1888110387361873	0.07296839181222371	0.03542727871576548	0.2197830285208918	-18.21135396703082	-15.03407499376707	5.182710379270787	-5.213506267911495	-652.3390164681773	-78.79918908784053	-22.1604431763487	-0.2520163382221627	0.3877246705900043	-0.7200054509719049	0.4621657714350907	0.4001771598252182	0.07829924086876908	1.094123385482633	0.2403996952726019	0.2403996952723834	-0.1274263949643671	0.09056267983117725	0.1731054911104883	0.4629014961199051	9.69053457249955e-08	1.11276427236888e-06	-4.438534652826272e-07	1.140188966017702e-07	2.017756901214725e-07	4.754820004873321e-07	1.645571971474557e-07
1.58	0.0494643579147933	0.01642071301962346	0.8970792574120574	0.4325726281053605	-0.3160548588816047	-0.2042364054451718	-0.7101074858058833	0.5317151254020102	0.5317151254019886	-0.1405045748664176	-0.1734300329217801	0.08930381223955262	0.009000047274189129	0.2599585362117065	0.2658433469047361	0.276808938542833	-1.706643795160529	0.1323247600776518	-0.5924289913542498	0.9566672457906221	-1.725398112949279	-1.725398112949452	-0.106732542902862	0.01429444210742103	-0.3708341049955294	0.0218947947505456	-0.1231896521781879	0.01099823757844509	-0.003123928479536926	-0.1863829396149136	0.07408877875887325	0.03438520943321666	0.2131638530748262	-17.74418692672964	-14.68504702870282	5.151904343478521	-5.123093782386903	-649.7182120187913	-78.75917547550277	-22.48207007909972	-0.2753555293501106	0.3607913484905485	-0.7458176754887593	0.6205675196634323	0.4070013219805844	0.1573294157320806	1.00016981802703	0.402807855247652	0.402807855247644	-0.08968024138344888	0.1329328433438675	0.2253020219370091	0.4848476245516036	9.575992959972423e-08	1.100552757696301e-06	-4.451593412147966e-07	1.083973143205248e-07	2.160868210944494e-07	4.776947502151076e-07	1.619470247200196e-07
